<svg xmlns="http://www.w3.org/2000/svg" viewBox="147.193 228.836 68.185 61.433" width="68.185" height="61.433">
  <path fill="#EFF2F6" opacity="1.000000" stroke="none" d=" M178.532074,228.883698 C184.469070,228.879761 189.963837,228.680893 195.405365,229.128815 C197.313248,229.285873 199.829239,230.571106 200.802612,232.130661 C205.717056,240.004776 210.388779,248.047241 214.718948,256.255737 C215.647186,258.015350 215.567154,261.092468 214.648346,262.900269 C211.271759,269.543884 207.346741,275.908783 203.510010,282.672546 C201.117203,288.902191 196.957245,290.737671 190.612839,290.172211 C183.191483,289.510803 175.663055,289.889648 168.187531,290.076050 C165.192398,290.150696 163.349365,289.318420 161.848694,286.566589 C157.555786,278.694427 153.068466,270.920410 148.399155,263.265472 C146.679703,260.446533 146.869873,258.312012 148.513062,255.548462 C153.260696,247.563721 157.624161,239.350937 162.343414,231.348557 C163.011124,230.216309 164.776550,229.195602 166.109253,229.091919 C170.075653,228.783340 174.079620,228.957611 178.532074,228.883698 M197.215851,245.262619 C195.423859,239.848007 191.474899,239.272064 186.184570,238.567291 C173.483368,236.875198 165.889160,241.333771 160.927704,253.151093 C158.794693,258.231537 159.236389,261.379852 161.191223,266.172150 C165.854385,277.604065 173.134247,282.100891 185.587921,280.464508 C191.214294,279.725220 194.210800,278.270172 197.696182,273.603333 C204.998550,263.825592 205.706726,255.114395 197.215851,245.262619 M187.424057,230.981293 C180.358795,230.981293 173.293533,230.981293 165.966553,230.981293 C167.834854,235.239670 174.912003,236.149033 193.011383,234.755310 C194.559204,234.636139 196.002640,233.161438 197.494583,232.316437 C197.267548,231.871429 197.040527,231.426437 196.813507,230.981430 C194.005096,230.981430 191.196686,230.981430 187.424057,230.981293 M171.714935,287.993591 C180.142853,287.993591 188.570770,287.993591 196.998688,287.993591 C197.206268,287.517822 197.413834,287.042053 197.621414,286.566254 C196.078308,285.715210 194.558243,284.181854 192.988205,284.128815 C185.378967,283.871826 177.751968,283.878448 170.142090,284.125336 C168.632645,284.174316 167.170639,285.685150 165.686768,286.521881 C165.910355,287.012390 166.133926,287.502899 166.357513,287.993408 C167.831100,287.993408 169.304672,287.993408 171.714935,287.993591 z"/>
</svg>