<svg xmlns="http://www.w3.org/2000/svg" viewBox="268.151 233.078 355.825 61.085" width="355.825" height="61.085">
  <path fill="#F1F4F6" opacity="1.000000" stroke="none" d=" M584.325684,279.575928 C584.403564,284.092590 584.403564,288.211060 584.403564,292.628784 C580.425110,292.921295 576.763123,294.687164 575.979187,290.281647 C571.344177,291.532166 566.860840,293.624908 562.313782,293.773926 C554.300720,294.036560 549.005737,288.358795 548.871643,280.367706 C548.723877,271.559265 548.864319,262.746002 548.952026,253.471497 C551.156006,253.008133 553.287048,253.008133 556.154968,253.008133 C556.154968,260.168060 556.142822,266.919464 556.157959,273.670776 C556.178162,282.699005 559.050964,286.811890 565.371338,286.907654 C572.038879,287.008636 576.241516,282.093597 576.393127,273.735870 C576.515808,266.970215 576.417908,260.200562 576.417908,253.235992 C579.221252,253.235992 581.321106,253.235992 584.247803,253.235992 C584.247803,262.028259 584.247803,270.602966 584.325684,279.575928 z"/>
  <path fill="#EFF2F6" opacity="1.000000" stroke="none" d=" M614.129089,293.204285 C608.150818,294.114716 602.340637,295.298737 597.176758,291.855072 C595.352905,290.638794 594.265503,288.318146 592.917725,286.221619 C595.902344,283.369354 598.384338,282.302002 602.375671,285.065002 C604.756226,286.712952 608.968872,286.140594 612.278625,285.798615 C613.507812,285.671570 615.318726,283.396667 615.390747,282.023956 C615.463440,280.637848 614.027649,278.504669 612.689880,277.851501 C609.897034,276.487823 606.730103,275.894226 603.722717,274.965057 C596.827026,272.834717 593.898682,269.529785 594.008301,264.025299 C594.121765,258.328705 597.978271,254.098404 604.555847,252.455399 C611.794128,250.647354 618.683289,252.909424 622.390564,258.657562 C620.812866,259.937866 619.187988,261.256531 617.872986,262.323730 C614.588684,261.137390 611.712585,259.344604 608.809509,259.299774 C606.669983,259.266724 604.495300,261.516815 602.336304,262.749573 C603.868896,264.623474 605.108582,266.921692 607.022644,268.242950 C608.689697,269.393738 611.124695,269.417053 613.208679,269.981659 C620.532104,271.965637 623.666809,275.092926 623.954834,280.665924 C624.253235,286.438995 621.394958,290.165344 614.129089,293.204285 z"/>
  <path fill="#F0F2F6" opacity="1.000000" stroke="none" d=" M288.429504,293.110474 C281.710632,293.173859 275.425659,293.173859 268.333862,293.173859 C268.333862,282.058960 268.333862,271.488464 268.242340,260.456116 C268.150818,251.240814 268.150818,242.487335 268.150818,233.674072 C277.710541,233.674072 286.324860,233.166962 294.846008,233.839951 C301.272400,234.347488 305.892212,238.260574 307.192322,245.033798 C308.463776,251.657745 306.300995,256.789581 300.258118,260.107544 C299.868927,260.321259 299.619202,260.788910 299.028809,261.444794 C305.093079,263.587250 309.077576,267.461334 309.964142,273.804749 C311.173248,282.456024 306.212952,289.569794 297.227875,291.922577 C294.526733,292.629852 291.656281,292.690338 288.429504,293.110474 M291.722656,265.287933 C286.957581,265.287933 282.192474,265.287933 277.281494,265.287933 C277.281494,272.301544 277.281494,278.978271 277.281494,285.810181 C282.014221,285.810181 286.332062,286.059235 290.610046,285.752319 C297.175629,285.281281 300.912018,281.963928 301.380920,276.746735 C301.912842,270.828247 299.333496,267.533051 291.722656,265.287933 M297.968475,244.813751 C292.322998,237.056488 284.427490,241.182510 277.228821,240.251755 C277.228821,246.467834 277.228821,252.017838 277.228821,257.757843 C278.742401,257.853821 279.880249,257.981476 281.018738,257.987213 C283.848907,258.001465 286.694550,258.141235 289.506805,257.905945 C296.856445,257.291077 299.854736,252.972168 297.968475,244.813751 z"/>
  <path fill="#EEF1F5" opacity="1.000000" stroke="none" d=" M349.176025,254.435486 C358.257629,250.533707 366.691406,250.900513 373.975677,257.541809 C380.445740,263.440735 382.626129,271.038940 379.745850,279.321075 C378.498413,282.908112 375.474548,285.877380 373.074524,289.391052 C365.717957,294.201050 358.153442,295.744812 350.265594,291.847260 C335.226318,284.416107 333.839966,263.563507 349.176025,254.435486 M357.871887,259.121002 C350.545166,260.896118 347.009674,264.811371 346.590302,271.614288 C346.154938,278.676971 349.104706,283.928619 354.839569,285.984161 C359.941376,287.812775 364.830139,287.170837 368.676910,283.294891 C373.217560,278.719757 373.832550,272.943573 371.662964,267.123566 C369.497650,261.315094 364.763947,258.933197 357.871887,259.121002 z"/>
  <path fill="#EBEDF5" opacity="1.000000" stroke="none" d=" M320.382568,264.039307 C320.382782,260.244995 320.382782,256.943665 320.382782,253.309235 C323.159912,253.309235 325.398651,253.309235 327.953552,253.309235 C327.953552,266.449982 327.953552,279.512970 327.953552,292.801483 C325.587524,292.801483 323.466644,292.801483 320.382324,292.801483 C320.382324,283.324432 320.382324,273.928345 320.382568,264.039307 z"/>
  <path fill="#EEF1F5" opacity="1.000000" stroke="none" d=" M326.314880,243.666656 C322.342407,244.424133 319.245697,243.331772 319.135254,239.470367 C319.075897,237.393188 321.019318,233.712524 322.458771,233.503128 C324.587830,233.193359 327.856812,234.741425 329.220245,236.562012 C331.213470,239.223648 329.327332,241.817993 326.314880,243.666656 z"/>
  <path fill="#EEF1F5" opacity="1.000000" stroke="none" d=" M444.336365,239.567688 C444.361816,253.027023 444.309875,266.051056 444.334778,279.538177 C444.411621,284.119293 444.411621,288.237305 444.411621,292.179810 C435.135406,294.178070 434.557587,293.940948 429.801331,286.899963 C421.603973,274.764954 413.397064,262.636353 405.186340,250.510391 C404.102081,248.909088 402.971588,247.339081 400.673645,246.009888 C400.673645,254.698013 400.673645,263.386139 400.764130,272.535675 C400.854614,279.454193 400.854614,285.911346 400.854614,292.687561 C397.801788,292.687561 395.555603,292.687561 392.845947,292.687561 C392.845947,272.997894 392.845947,253.332977 392.845947,233.166382 C396.105927,233.166382 399.066437,233.166382 402.476379,233.207458 C404.677155,235.737915 406.428436,238.227280 408.542542,241.239487 C410.238678,243.602066 411.571960,245.441833 412.905243,247.281601 C413.732239,248.779358 414.559235,250.277115 415.793243,252.258667 C422.403442,262.073792 428.606598,271.405090 434.809784,280.736389 C435.181763,280.563751 435.553741,280.391083 435.925720,280.218445 C435.925720,277.146179 435.925720,274.073914 435.925720,271.001648 C435.996368,260.514954 436.080200,250.028351 436.133057,239.541580 C436.168457,232.513626 436.414581,232.307526 443.965942,233.872513 C444.059570,235.552948 444.159271,237.342667 444.336365,239.567688 z"/>
  <path fill="#EEF1F5" opacity="1.000000" stroke="none" d=" M487.075562,291.682983 C485.741241,292.271606 484.638672,292.634949 483.517731,292.928040 C475.276947,295.082520 467.544586,294.458527 461.259796,288.074402 C454.849457,281.562744 454.512238,273.397003 456.369781,265.178711 C456.974274,262.504364 459.606628,260.288330 461.515045,257.566772 C467.039429,252.963150 473.129150,250.992828 479.864777,252.248184 C490.666656,254.261414 496.650482,263.434723 495.133575,275.742737 C484.982178,275.742737 474.743622,275.742737 464.353973,275.742737 C463.504669,280.812714 466.133087,283.425873 469.574585,285.294952 C476.540436,289.078064 482.710510,287.355286 488.127747,281.576691 C489.968262,282.977753 491.517853,284.157349 493.854767,285.936310 C491.440338,287.957764 489.369568,289.691498 487.075562,291.682983 M484.383087,261.142059 C479.755249,257.311523 474.718384,256.845367 469.598145,259.831207 C466.072449,261.887207 463.675964,264.863190 464.139984,269.471680 C471.974304,269.471680 479.357544,269.471680 487.872406,269.471680 C486.701569,266.418701 485.800385,264.068878 484.383087,261.142059 z"/>
  <path fill="#EFF2F6" opacity="1.000000" stroke="none" d=" M511.774506,288.911926 C509.300812,294.409302 504.836090,292.847778 499.562927,292.950348 C504.061096,286.992188 507.732910,281.536346 512.030823,276.628815 C515.291687,272.905457 515.238098,270.143402 511.980591,266.519073 C508.465149,262.607758 505.537292,258.168335 501.887909,253.344391 C507.415619,252.810822 511.919708,251.758240 514.539001,257.762939 C515.880249,260.837677 518.501770,263.353912 520.874817,266.569977 C523.483276,262.786224 526.073547,259.611572 528.010315,256.078644 C530.708923,251.156067 534.840027,253.688995 539.786987,252.660965 C534.718750,259.694244 530.502136,265.545715 526.157959,271.574280 C531.263367,278.448273 536.358398,285.308319 541.695435,292.494202 C535.888306,293.768860 531.640503,293.339020 528.760925,287.792786 C526.734558,283.889862 523.679749,280.520874 520.678223,276.349304 C517.516174,280.815979 514.756042,284.714905 511.774506,288.911926 z"/>
</svg>